# xmcd
#
# Track frame offsets: 
#        150
#        13279
#        24525
#        35601
#        46099
#        61148
#        81557
#        108759
#        120040
#        131284
#        143808
#        172001
#        182193
#        199865
#        210792
#        224113
#        234648
#        243557
#        265120
#        275961
#        300326
#
# Disc length: 4361 seconds
#
# Revision: 0
# Processed by: cddbd v1.5.2PL0 Copyright (c) Steve Scherf et al.
# Submitted via: ExactAudioCopyFreeDBPlugin 1.0
#
DISCID=2d110715
DTITLE=Nine Below Zero - Live At The Marquee
DYEAR=1900
DGENRE=Blues
TTITLE0=Tore Down
TTITLE1=Straighten Her Out
TTITLE2=Homework
TTITLE3=I Can't Help Myself
TTITLE4=Can I Get A Witness
TTITLE5=Ridin' On The L&N
TTITLE6=I Can't Quit You Baby
TTITLE7=Stop Your Naggin'
TTITLE8=Hootchie Cootchie Coo
TTITLE9=Wooly Bully
TTITLE10=Got My Mojo Working
TTITLE11=Pack Fair and Square
TTITLE12=Watch Yourself
TTITLE13=Swing Job
TTITLE14=Rocket 88
TTITLE15=(Just A) Little Bit
TTITLE16=Twenty Yards Behind
TTITLE17=Stormy Monday
TTITLE18=Is That You
TTITLE19=Keep On Knocking
TTITLE20=Madison Blues
EXTD=
EXTT0=
EXTT1=
EXTT2=
EXTT3=
EXTT4=
EXTT5=
EXTT6=
EXTT7=
EXTT8=
EXTT9=
EXTT10=
EXTT11=
EXTT12=
EXTT13=
EXTT14=
EXTT15=
EXTT16=
EXTT17=
EXTT18=
EXTT19=
EXTT20=
PLAYORDER=
